<svg width="838" height="563" viewBox="0 0 838 563" fill="none" xmlns="http://www.w3.org/2000/svg">
<path d="M294 144.5C332.833 164.167 426.4 204.4 490 208C553.6 211.6 580.167 195.167 585.5 186.5H610C603.333 189.333 590.7 196.7 593.5 203.5C597 212 686.5 173.5 680 157C673.5 140.5 685 144 666 126C647 108 588 59 599 47.5C610 36 591 13.5 618.5 3.5C646 -6.5 579 13 632 38C685 63 654.5 25 706 75.5C709 63.5 725.2 41.1 766 47.5C773.5 45.6667 791.3 43.1 802.5 47.5C816.5 53 825.5 16 835.5 19.5C845.5 23 803.5 110.5 779 109C754.5 107.5 735.5 133.5 731.5 133C727.5 132.5 701 173.5 711.5 176.5C722 179.5 664.5 337 625 361.5C585.5 386 543 421.5 477.5 430.5C412 439.5 429 410.5 423 424.5C417 438.5 431.5 468 433.5 475C435.5 482 477 554.5 461.5 561.5C446 568.5 390.5 521.5 390.5 519C390.5 517 390.5 507.167 390.5 502.5L373 494.5C371.333 478.5 360.6 444.9 331 438.5C334.833 428.333 340.2 407.4 331 405C319.5 402 253.5 353.5 247.5 361.5C241.5 369.5 213.5 424 192 435.5C170.5 447 160 487.5 131 491C127.5 486.5 119.9 476.1 117.5 470.5C115.1 464.9 123.167 452.5 127.5 447L124 430.5L136 424.5L141.5 405L136 396.5L141.5 387H150L165.5 378.5C166.5 368.167 170.3 348.9 177.5 354.5C186.5 361.5 164 354 192 318C167.333 296.5 116.1 250.2 108.5 237C99 220.5 77 189 70 161C63 133 44 126.5 38.5 120.5C34.1 115.7 29 114.5 27 114.5V106.5H18C14.6667 97.8333 9 80.4 13 80C18 79.5 2.50002 84.5 1.00002 66C-0.49998 47.5 12.5 64.5 18 56C23.5 47.5 36.5 33 47 38C57.5 43 43 16 131 56C145.167 61 171.9 71.9 165.5 75.5C157.5 80 183 71 185.5 80C188 89 185.5 70.5 203 92.5C217 110.1 219.167 99.8333 218.5 92.5L237 106.5C235.333 101.167 244.4 101.3 294 144.5Z" stroke="black"/>
</svg>
